<svg xmlns="http://www.w3.org/2000/svg" height="368" width="368.002"><rect id="backgroundrect" width="100%" height="100%" x="0" y="0" fill="none" stroke="none"/><g class="currentLayer" style=""><title>Layer 1</title><path d="m8.003906 368c2.046875 0 4.09375-.78125 5.652344-2.34375l192-192c3.128906-3.128906 3.128906-8.183594 0-11.3125-3.125-3.125-8.183594-3.125-11.308594 0l-192 192c-3.128906 3.128906-3.128906 8.183594 0 11.3125 1.558594 1.5625 3.605469 2.34375 5.65625 2.34375zm0 0" id="svg_1" class="selected" fill-opacity="1" fill="#e9bc2d"/><path d="m194.347656 226.34375-128 128c-3.128906 3.128906-3.128906 8.183594 0 11.3125 1.558594 1.5625 3.605469 2.34375 5.65625 2.34375 2.046875 0 4.09375-.78125 5.652344-2.34375l128-128c3.128906-3.128906 3.128906-8.183594 0-11.3125-3.125-3.125-8.183594-3.125-11.308594 0zm0 0" id="svg_2" class="selected" fill-opacity="1" fill="#e9bc2d"/><path d="m8.003906 304c2.046875 0 4.09375-.78125 5.652344-2.34375l128-128c3.128906-3.128906 3.128906-8.183594 0-11.3125-3.125-3.125-8.183594-3.125-11.308594 0l-128 128c-3.128906 3.128906-3.128906 8.183594 0 11.3125 1.558594 1.5625 3.605469 2.34375 5.65625 2.34375zm0 0" id="svg_3" class="selected" fill-opacity="1" fill="#e9bc2d"/><path d="m264.003906 0h-208c-30.875 0-55.99999975 25.128906-55.99999975 56s25.12499975 56 55.99999975 56h160c22.054688 0 40 17.945312 40 40v160c0 30.871094 25.125 56 56 56 30.871094 0 56-25.128906 56-56v-208c0-57.34375-46.65625-104-104-104zm-208 96c-22.058594 0-40-17.941406-40-40 0-22.054688 17.941406-40 40-40h24.886719c-10.410156 10.175781-16.886719 24.335938-16.886719 40s6.476563 29.824219 16.886719 40zm64 0c-22.058594 0-40-17.941406-40-40 0-22.054688 17.941406-40 40-40h104v32h-56c-4.425781 0-8 3.578125-8 8 0 4.425781 3.574219 8 8 8h56v32.640625c-2.625-.375-5.28125-.640625-8-.640625zm192.015625 112c4.421875 0 8-3.574219 8-8v-56h31.984375v104c0 22.058594-17.945312 40-40 40-22.058594 0-40-17.941406-40-40v-96c0-2.71875-.265625-5.375-.640625-8h32.65625v56c0 4.425781 3.574219 8 8 8zm39.984375 104c0 22.058594-17.945312 40-40 40-22.058594 0-40-17.941406-40-40v-24.886719c10.175782 10.40625 24.335938 16.886719 40 16.886719 15.660156 0 29.820313-6.480469 40-16.886719zm0-184h-85.480468c-5.539063-11.597656-14.921876-20.984375-26.519532-26.519531v-85.480469h24c48.519532 0 88 39.480469 88 88zm0 0" id="svg_4" class="selected" fill-opacity="1" fill="#e9bc2d"/><path d="m124.402344 49.359375c-.398438-.320313-.878906-.558594-1.359375-.71875-.488281-.238281-.960938-.398437-1.519531-.488281-2.554688-.550782-5.273438.320312-7.195313 2.167968-.71875.800782-1.277344 1.601563-1.679687 2.640626-.40625.960937-.644532 2-.644532 3.039062 0 2.160156.796875 4.160156 2.316406 5.679688 1.515626 1.511718 3.515626 2.320312 5.683594 2.320312 2.15625 0 4.15625-.808594 5.679688-2.320312.71875-.808594 1.277344-1.679688 1.679687-2.640626.398438-.957031.640625-2 .640625-3.039062 0-2.078125-.882812-4.167969-2.320312-5.679688-.402344-.320312-.808594-.71875-1.28125-.960937zm0 0" id="svg_5" class="selected" fill-opacity="1" fill="#e9bc2d"/><path d="m304.640625 251.039062c.402344.960938.960937 1.832032 1.679687 2.640626 1.515626 1.511718 3.515626 2.320312 5.683594 2.320312 2.15625 0 4.15625-.808594 5.679688-2.320312.71875-.808594 1.359375-1.679688 1.757812-2.640626.402344-.957031.5625-2 .5625-3.039062 0-2.078125-.808594-4.167969-2.320312-5.679688-.722656-.71875-1.601563-1.28125-2.640625-1.679687-1.921875-.878906-4.167969-.878906-6.082031 0-.957032.398437-1.839844.960937-2.640626 1.679687-1.445312 1.511719-2.316406 3.601563-2.316406 5.679688 0 1.039062.238282 2.082031.636719 3.039062zm0 0" id="svg_6" class="selected" fill-opacity="1" fill="#e9bc2d"/></g></svg>