<svg xmlns="http://www.w3.org/2000/svg" enable-background="new 0 0 64 64" height="185.9512176211099" width="161.56097409688778" style=""><rect id="backgroundrect" width="100%" height="100%" x="0" y="0" fill="none" stroke="none" class="" style=""/><g class="currentLayer" style=""><title>Layer 1</title><g id="svg_1" class="" fill-opacity="1" fill="#eeb21f"><path d="m34.68607547677905,21.565695709695348 c-8.6663040894464,0 -15.720168081400573,7.1774276170440645 -15.720168081400573,15.995540693826314 s7.053863991954171,15.995540693826314 15.720168081400573,15.995540693826314 s15.720168081400573,-7.1774276170440645 15.720168081400573,-15.995540693826314 s-7.053863991954171,-15.995540693826314 -15.720168081400573,-15.995540693826314 zm0,27.420926903702252 c-6.191500485774484,0 -11.228691486714695,-5.1254282537503455 -11.228691486714695,-11.425386209875938 s5.037191000940212,-11.425386209875938 11.228691486714695,-11.425386209875938 s11.228691486714695,5.1254282537503455 11.228691486714695,11.425386209875938 s-5.037191000940212,11.425386209875938 -11.228691486714695,11.425386209875938 z" id="svg_2" fill="#eeb21f"/><path d="m14.474430800692602,87.83293572697579 h4.491476594685878 v4.570154483950375 h-4.491476594685878 z" id="svg_3" fill="#eeb21f"/><path d="m32.44033717943611,87.83293572697579 h4.491476594685878 v4.570154483950375 h-4.491476594685878 z" id="svg_4" fill="#eeb21f"/><path d="m41.42329036880787,87.83293572697579 h4.491476594685878 v4.570154483950375 h-4.491476594685878 z" id="svg_5" fill="#eeb21f"/><path d="m23.457383990064358,87.83293572697579 h4.491476594685878 v4.570154483950375 h-4.491476594685878 z" id="svg_6" fill="#eeb21f"/><path d="m50.406243558179625,87.83293572697579 h4.491476594685878 v4.570154483950375 h-4.491476594685878 z" id="svg_7" fill="#eeb21f"/><path d="m133.49856055986837,60.41200882327354 c3.7144511438052215,0 6.737214892028817,-3.075713967698603 6.737214892028817,-6.855231725925563 v-45.701544839503754 c0,-3.7795177582269606 -3.0227637482235963,-6.855231725925563 -6.737214892028817,-6.855231725925563 h-53.897719136230535 c-3.7144511438052215,0 -6.737214892028817,3.075713967698603 -6.737214892028817,6.855231725925563 v27.420926903702252 h-13.474429784057634 v-3.905197006535596 l-3.4808943608815555,-1.2430820196345023 c-0.2986831935466109,-0.8911801243703236 -0.6490183679321094,-1.7572243990789196 -1.04651404656181,-2.5889925151578876 l1.592228452816144,-3.3773441636393273 l-8.601177678823458,-8.75184583676497 l-3.3192012034728635,1.6201197645604082 c-0.8174487402328302,-0.4044586718296083 -1.668583554925804,-0.7609307215777378 -2.5444214908895497,-1.0648459947604378 l-1.2194358954572158,-3.539584647819566 h-12.167410095004042 l-1.2216816337545588,3.5418697250615407 c-0.8758379359637466,0.30391527318269995 -1.7269727506567203,0.6603873229308294 -2.5444214908895497,1.0648459947604378 l-3.3192012034728635,-1.6201197645604082 l-8.601177678823458,8.75184583676497 l1.592228452816144,3.3773441636393273 c-0.3974956786297003,0.8317681160789688 -0.747830853015199,1.6978123907875646 -1.04651404656181,2.5889925151578876 l-3.478648622584213,1.240796942392527 v12.378263419779593 l3.478648622584213,1.2453670968764776 c0.30092893184395386,0.8911801243703236 0.6512641062294522,1.7572243990789196 1.0487597848591528,2.5889925151578876 l-1.592228452816144,3.3773441636393273 l8.601177678823458,8.75184583676497 l3.3192012034728635,-1.6201197645604082 c0.8174487402328302,0.4044586718296083 1.668583554925804,0.7609307215777378 2.5444214908895497,1.067131072002413 l1.2216816337545588,3.5372995705775905 h3.83572101186174 v16.027531775213966 c-15.54949197080251,0.3130555821506008 -31.440336162801145,3.9029119292936207 -31.440336162801145,11.393395128488285 v41.13139035555338 c0,7.851525403426744 17.46061526184135,11.425386209875938 33.686074460144084,11.425386209875938 s33.686074460144084,-3.5738608064491935 33.686074460144084,-11.425386209875938 v-41.13139035555338 c0,-7.490483199194665 -15.890844191998635,-11.080339546337685 -31.440336162801145,-11.393395128488285 v-16.027531775213966 h3.83572101186174 l1.223927372051902,-3.539584647819566 c0.8758379359637466,-0.3062003504246752 1.7269727506567203,-0.6626724001728044 2.5444214908895497,-1.067131072002413 l3.3192012034728635,1.6201197645604082 l8.601177678823458,-8.75184583676497 l-1.592228452816144,-3.3773441636393273 c0.3974956786297003,-0.8317681160789688 0.747830853015199,-1.6978123907875646 1.0487597848591528,-2.5889925151578876 l3.4764028842868693,-1.2430820196345023 v-3.9029119292936207 h13.474429784057634 v13.710463451851126 c0,3.7795177582269606 3.0227637482235963,6.855231725925563 6.737214892028817,6.855231725925563 h24.70312127077233 v9.14030896790075 h-24.70312127077233 c-3.7144511438052215,0 -6.737214892028817,3.075713967698603 -6.737214892028817,6.855231725925563 v45.701544839503754 c0,3.7795177582269606 3.0227637482235963,6.855231725925563 6.737214892028817,6.855231725925563 h53.897719136230535 c3.7144511438052215,0 6.737214892028817,-3.075713967698603 6.737214892028817,-6.855231725925563 v-45.701544839503754 c0,-3.7795177582269606 -3.0227637482235963,-6.855231725925563 -6.737214892028817,-6.855231725925563 h-24.70312127077233 v-9.14030896790075 zm-98.81248508308931,77.69262622715638 c-19.261697376310387,0 -29.194597865458206,-4.80551743987382 -29.194597865458206,-6.855231725925563 v-7.616162447503301 c6.231923775126655,3.6287026602565984 18.006329668095688,5.3310852055281135 29.194597865458206,5.3310852055281135 s22.96267409033155,-1.7023825452715151 29.194597865458206,-5.3310852055281135 v7.616162447503301 c0,2.0497142860517434 -9.93290048914782,6.855231725925563 -29.194597865458206,6.855231725925563 zm0,-13.710463451851126 c-19.261697376310387,0 -29.194597865458206,-4.80551743987382 -29.194597865458206,-6.855231725925563 v-7.616162447503301 c6.231923775126655,3.6287026602565984 18.006329668095688,5.3310852055281135 29.194597865458206,5.3310852055281135 s22.96267409033155,-1.7023825452715151 29.194597865458206,-5.3310852055281135 v7.616162447503301 c0,2.0497142860517434 -9.93290048914782,6.855231725925563 -29.194597865458206,6.855231725925563 zm0,-13.710463451851126 c-19.261697376310387,0 -29.194597865458206,-4.80551743987382 -29.194597865458206,-6.855231725925563 v-7.616162447503301 c6.231923775126655,3.6287026602565984 18.006329668095688,5.3310852055281135 29.194597865458206,5.3310852055281135 s22.96267409033155,-1.7023825452715151 29.194597865458206,-5.3310852055281135 v7.616162447503301 c0,2.0497142860517434 -9.93290048914782,6.855231725925563 -29.194597865458206,6.855231725925563 zm29.194597865458206,-20.56569517777669 c0,2.0497142860517434 -9.93290048914782,6.855231725925563 -29.194597865458206,6.855231725925563 s-29.194597865458206,-4.80551743987382 -29.194597865458206,-6.855231725925563 s9.93290048914782,-6.855231725925563 29.194597865458206,-6.855231725925563 s29.194597865458206,4.80551743987382 29.194597865458206,6.855231725925563 zm-8.982953189371756,-49.60445676879737 l-2.6320052844859245,0.9391667464518023 l-0.31664909992535445,1.1356833892616687 c-0.38402124884564265,1.3619060362172122 -0.9072782721265478,2.652974677933193 -1.556296640058657,3.8389297665183157 l-0.5681717892277635,1.03513999061476 l1.2059614656731583,2.5547163565282602 l-4.100718130948207,4.172551043846693 l-2.510735416429406,-1.227086478940676 l-1.0173194486963513,0.5781245422197224 c-1.1655381763209856,0.6603873229308294 -2.434380314319746,1.1928103203110483 -3.772840339536138,1.5835585286888054 l-1.116131933779441,0.3244809683604766 l-0.925244178505291,2.67811052759492 h-5.802987760334154 l-0.9229984402079481,-2.67811052759492 l-1.116131933779441,-0.32219589111850155 c-1.3384600252163918,-0.39074820837775714 -2.6073021632151523,-0.9231712057579763 -3.772840339536138,-1.5835585286888054 l-1.0173194486963513,-0.5781245422197224 l-2.510735416429406,1.227086478940676 l-4.100718130948207,-4.172551043846693 l1.2059614656731583,-2.5547163565282602 l-0.5681717892277635,-1.0374250678567352 c-0.6490183679321094,-1.1859550885851227 -1.1722753912130144,-2.477023730301104 -1.556296640058657,-3.8389297665183157 l-0.31889483822269726,-1.1356833892616687 l-2.6320052844859245,-0.9391667464518023 v-5.902354516021911 l2.6364967610806103,-0.9437369009357529 l0.31889483822269726,-1.1356833892616687 c0.37952977225095685,-1.3596209589752373 0.9005410572345187,-2.648404523449243 1.5518051634639711,-3.8366446892763406 l0.5681717892277635,-1.03513999061476 l-1.2059614656731583,-2.5547163565282602 l4.100718130948207,-4.172551043846693 l2.510735416429406,1.227086478940676 l1.0173194486963513,-0.5781245422197224 c1.1677839146183282,-0.6626724001728044 2.434380314319746,-1.1928103203110483 3.770594601238795,-1.578988374204855 l1.116131933779441,-0.3244809683604766 l0.9274899168026342,-2.6826806820788702 h5.798496283739468 l0.9274899168026342,2.6826806820788702 l1.116131933779441,0.3244809683604766 c1.3362142869190492,0.3861780538938069 2.6028106866204666,0.9163159740320505 3.770594601238795,1.578988374204855 l1.0173194486963513,0.5781245422197224 l2.510735416429406,-1.227086478940676 l4.100718130948207,4.172551043846693 l-1.2059614656731583,2.5547163565282602 l0.5681717892277635,1.03513999061476 c0.6512641062294522,1.1882401658270976 1.1722753912130144,2.477023730301104 1.5518051634639711,3.8366446892763406 l0.31889483822269726,1.1356833892616687 l2.6364967610806103,0.9437369009357529 zm78.60084040700286,83.88061539842519 h-53.897719136230535 c-1.2396475401333025,0 -2.245738297342939,-1.0237146044048842 -2.245738297342939,-2.2850772419751877 v-29.70600414567744 h58.38919573091641 v29.70600414567744 c0,1.2613626375703038 -1.0060907572096367,2.2850772419751877 -2.245738297342939,2.2850772419751877 zm2.245738297342939,-47.98662208147894 v11.425386209875938 h-58.38919573091641 v-11.425386209875938 c0,-1.2613626375703038 1.0060907572096367,-2.2850772419751877 2.245738297342939,-2.2850772419751877 h53.897719136230535 c1.2396475401333025,0 2.245738297342939,1.0237146044048842 2.245738297342939,2.2850772419751877 zm-56.143457433573474,-70.83739450123082 h53.897719136230535 c1.2396475401333025,0 2.245738297342939,1.0237146044048842 2.245738297342939,2.2850772419751877 v11.425386209875938 h-58.38919573091641 v-11.425386209875938 c0,-1.2613626375703038 1.0060907572096367,-2.2850772419751877 2.245738297342939,-2.2850772419751877 zm-2.245738297342939,47.98662208147894 v-29.70600414567744 h58.38919573091641 v29.70600414567744 c0,1.2613626375703038 -1.0060907572096367,2.2850772419751877 -2.245738297342939,2.2850772419751877 h-53.897719136230535 c-1.2396475401333025,0 -2.245738297342939,-1.0237146044048842 -2.245738297342939,-2.2850772419751877 z" id="svg_8" fill="#eeb21f"/><path d="m99.81248609972428,10.14030949981941 h4.491476594685878 v4.570154483950375 h-4.491476594685878 z" id="svg_9" fill="#eeb21f"/><path d="m81.84657972098077,10.14030949981941 h4.491476594685878 v4.570154483950375 h-4.491476594685878 z" id="svg_10" fill="#eeb21f"/><path d="m90.82953291035253,10.14030949981941 h4.491476594685878 v4.570154483950375 h-4.491476594685878 z" id="svg_11" fill="#eeb21f"/><path d="m81.84657972098077,78.69262675907504 h4.491476594685878 v4.570154483950375 h-4.491476594685878 z" id="svg_12" fill="#eeb21f"/><path d="m90.82953291035253,78.69262675907504 h4.491476594685878 v4.570154483950375 h-4.491476594685878 z" id="svg_13" fill="#eeb21f"/><path d="m99.81248609972428,78.69262675907504 h4.491476594685878 v4.570154483950375 h-4.491476594685878 z" id="svg_14" fill="#eeb21f"/><path d="m81.84657972098077,51.27169985537279 h17.96590637874351 v-22.850772419751877 h-17.96590637874351 zm4.491476594685878,-18.2806179358015 h8.982953189371756 v13.710463451851126 h-8.982953189371756 z" id="svg_15" fill="#eeb21f"/><path d="m104.30396269441016,28.42092743562091 h4.491476594685878 v4.570154483950375 h-4.491476594685878 z" id="svg_16" fill="#eeb21f"/><path d="m113.28691588378192,28.42092743562091 h17.96590637874351 v4.570154483950375 h-17.96590637874351 z" id="svg_17" fill="#eeb21f"/><path d="m104.30396269441016,37.56123640352166 h26.948859568115267 v4.570154483950375 h-26.948859568115267 z" id="svg_18" fill="#eeb21f"/><path d="m104.30396269441016,46.70154537142241 h26.948859568115267 v4.570154483950375 h-26.948859568115267 z" id="svg_19" fill="#eeb21f"/><path d="m104.30396269441016,119.82401711462842 h26.948859568115267 v-22.850772419751877 h-26.948859568115267 zm4.491476594685878,-18.2806179358015 h17.96590637874351 v13.710463451851126 h-17.96590637874351 z" id="svg_20" fill="#eeb21f"/><path d="m81.84657972098077,96.97324469487654 h17.96590637874351 v4.570154483950375 h-17.96590637874351 z" id="svg_21" fill="#eeb21f"/><path d="m81.84657972098077,106.11355366277729 h17.96590637874351 v4.570154483950375 h-17.96590637874351 z" id="svg_22" fill="#eeb21f"/><path d="m81.84657972098077,115.25386263067804 h17.96590637874351 v4.570154483950375 h-17.96590637874351 z" id="svg_23" fill="#eeb21f"/></g></g></svg>