<svg height="682pt" viewBox="-21 -32 682.66669 682" width="682pt" xmlns="http://www.w3.org/2000/svg"><path d="m608 266.25h-42.667969c-5.886719 0-10.664062 4.773438-10.664062 10.667969 0 5.886719 4.777343 10.664062 10.664062 10.664062h42.667969c5.890625 0 10.667969 4.773438 10.667969 10.667969v106.664062c0 5.894532-4.777344 10.671876-10.667969 10.671876h-42.667969c-5.886719 0-10.664062 4.773437-10.664062 10.664062s4.777343 10.667969 10.664062 10.667969h42.667969c17.671875 0 32-14.328125 32-32.003907v-106.664062c0-17.675781-14.328125-32-32-32zm0 0"/><path d="m170.667969 276.917969c0-5.894531-4.777344-10.667969-10.667969-10.667969h-85.332031v-10.664062c0-5.894532-4.777344-10.671876-10.667969-10.671876s-10.664062 4.777344-10.664062 10.671876v10.664062h-21.335938c-17.671875 0-32 14.324219-32 32v106.664062c0 17.675782 14.328125 32.003907 32 32.003907h128c5.890625 0 10.667969-4.777344 10.667969-10.667969s-4.777344-10.664062-10.667969-10.664062h-128c-5.890625 0-10.667969-4.777344-10.667969-10.671876v-106.664062c0-5.894531 4.777344-10.667969 10.667969-10.667969h128c5.890625 0 10.667969-4.777343 10.667969-10.664062zm0 0"/><path d="m474.773438 316.703125c-.851563-2.882813-1.921876-5.65625-2.984376-8.429687-23.3125-58.480469-89.148437-87.546876-148.070312-65.371094-58.921875 22.179687-89.257812 87.4375-68.226562 146.777344 21.035156 59.34375 85.695312 90.929687 145.429687 71.050781 59.738281-19.882813 92.574219-83.914063 73.851563-144.027344zm-27.945313 7.679687-42.667969 85.332032c-1.78125 3.609375-5.46875 5.882812-9.492187 5.871094h-.53125c-4.257813-.230469-7.984375-2.949219-9.496094-6.933594l-21.976563-58.667969-21.96875 58.667969c-1.515624 3.984375-5.234374 6.703125-9.492187 6.933594-4.214844.222656-8.160156-2.082032-10.03125-5.871094l-42.664063-85.332032c-1.667968-3.277343-1.546874-7.175781.320313-10.347656 1.078125-1.683594 2.585937-3.046875 4.371094-3.945312 2.519531-1.289063 5.441406-1.511719 8.125-.632813 2.683593.882813 4.90625 2.800781 6.171875 5.328125l31.785156 63.464844 23.359375-62.402344c1.53125-4.21875 5.539063-7.027344 10.023437-7.027344 4.488282 0 8.5 2.808594 10.03125 7.027344l23.359376 62.402344 31.789062-63.464844c1.257812-2.527344 3.480469-4.445312 6.164062-5.328125 2.6875-.878906 5.609376-.65625 8.125.632813 2.675782 1.324218 4.65625 3.730468 5.441407 6.613281.105469.238281.179687.488281.214843.746094-.019531.21875.019532.441406.105469.640625.082031.492187.117188.996094.105469 1.492187-.035156 1.667969-.4375 3.308594-1.171875 4.800781zm0 0"/><path d="m53.335938 319.582031v64c0 5.894531 4.773437 10.667969 10.664062 10.667969s10.667969-4.773438 10.667969-10.667969v-64c0-5.886719-4.777344-10.667969-10.667969-10.667969s-10.664062 4.78125-10.664062 10.667969zm0 0"/><path d="m603.628906 555.207031-70.292968-68.691406-11.273438 11.277344c-.460938-1.660157-1.328125-3.175781-2.523438-4.414063l-21.332031-21.335937c-3.707031-3.644531-9.519531-4.042969-13.683593-.929688l.808593-.8125c65.132813-67.292969 63.8125-174.519531-2.945312-240.199219-66.761719-65.679687-173.996094-65.238281-240.21875.980469-66.222657 66.226563-66.660157 173.457031-.980469 240.21875 65.679688 66.765625 172.898438 68.078125 240.199219 2.949219l.808593-.808594c-3.109374 4.164063-2.71875 9.976563.929688 13.679688l21.332031 21.339844c1.242188 1.191406 2.761719 2.054687 4.417969 2.515624l-13.304688 13.300782 70.402344 68.796875c.550782-1.402344 1.386719-2.671875 2.457032-3.730469l31.996093-32c.898438-.9375 1.992188-1.667969 3.203125-2.136719zm-240.964844-64.953125c-76.578124 0-138.664062-62.085937-138.664062-138.667968 0-76.585938 62.085938-138.667969 138.664062-138.667969 76.585938 0 138.667969 62.082031 138.667969 138.667969-.066406 76.550781-62.113281 138.59375-138.667969 138.667968zm0 0"/><path d="m617.8125 569.074219c-.515625 1.277343-1.28125 2.433593-2.242188 3.414062l-31.996093 32.003907c-1.035157.96875-2.226563 1.765624-3.519531 2.34375l3.734374 3.625c10.425782 10.429687 27.328126 10.429687 37.757813 0 10.425781-10.421876 10.425781-27.332032 0-37.757813zm0 0"/><path d="m21.332031-.417969h160c5.894531 0 10.667969 4.777344 10.667969 10.671875v21.332032c0 5.886718-4.773438 10.664062-10.667969 10.664062h-160c-5.886719 0-10.664062-4.777344-10.664062-10.664062v-21.332032c0-5.894531 4.777343-10.671875 10.664062-10.671875zm0 0"/><path d="m320 84.914062h160c5.890625 0 10.667969 4.777344 10.667969 10.671876v21.332031c0 5.886719-4.777344 10.664062-10.667969 10.664062h-160c-5.890625 0-10.667969-4.777343-10.667969-10.664062v-21.332031c0-5.894532 4.777344-10.671876 10.667969-10.671876zm0 0"/><path d="m245.332031-.417969h85.335938c5.890625 0 10.664062 4.777344 10.664062 10.671875v21.332032c0 5.886718-4.773437 10.664062-10.664062 10.664062h-85.335938c-5.886719 0-10.664062-4.777344-10.664062-10.664062v-21.332032c0-5.894531 4.777343-10.671875 10.664062-10.671875zm0 0"/><path d="m170.667969 84.914062h85.332031c5.890625 0 10.664062 4.777344 10.664062 10.671876v21.332031c0 5.886719-4.773437 10.664062-10.664062 10.664062h-85.332031c-5.894531 0-10.667969-4.777343-10.667969-10.664062v-21.332031c0-5.894532 4.773438-10.671876 10.667969-10.671876zm0 0"/><path d="m21.332031 127.582031h32.003907v21.332031c0 5.894532 4.773437 10.667969 10.664062 10.667969s10.667969-4.773437 10.667969-10.667969v-21.332031h31.996093c5.894532 0 10.671876-4.777343 10.671876-10.664062v-21.332031c0-5.894532-4.777344-10.671876-10.671876-10.671876h-85.332031c-5.886719 0-10.664062 4.777344-10.664062 10.671876v21.332031c0 5.886719 4.777343 10.664062 10.664062 10.664062zm0 0"/><path d="m394.667969-.417969h42.667969c5.886718 0 10.664062 4.777344 10.664062 10.671875v21.332032c0 5.886718-4.777344 10.664062-10.664062 10.664062h-42.667969c-5.894531 0-10.667969-4.777344-10.667969-10.664062v-21.332032c0-5.894531 4.773438-10.671875 10.667969-10.671875zm0 0"/><path d="m544 84.914062h74.667969c5.886719 0 10.664062 4.777344 10.664062 10.671876v21.332031c0 5.886719-4.777343 10.664062-10.664062 10.664062h-74.667969c-5.890625 0-10.664062-4.777343-10.664062-10.664062v-21.332031c0-5.894532 4.773437-10.671876 10.664062-10.671876zm0 0"/><path d="m501.332031-.417969h117.335938c5.886719 0 10.664062 4.777344 10.664062 10.671875v21.332032c0 5.886718-4.777343 10.664062-10.664062 10.664062h-117.335938c-5.886719 0-10.664062-4.777344-10.664062-10.664062v-21.332032c0-5.894531 4.777343-10.671875 10.664062-10.671875zm0 0"/><path d="m64 180.917969c-5.890625 0-10.664062 4.773437-10.664062 10.667969v21.332031c0 5.890625 4.773437 10.664062 10.664062 10.664062s10.667969-4.773437 10.667969-10.664062v-21.332031c0-5.894532-4.777344-10.667969-10.667969-10.667969zm0 0"/></svg>