<svg xmlns="http://www.w3.org/2000/svg" height="682.66905" width="682"><rect id="backgroundrect" width="100%" height="100%" x="0" y="0" fill="none" stroke="none"/><g class="currentLayer" style=""><title>Layer 1</title><path d="m607.125 419.316406h-340.621094c-13.335937-.011718-25.945312 6.085938-34.207031 16.554688l-39.832031 31.554687-26.921875-40.269531c16.375-14.523438 27.445312-34.09375 31.449219-55.613281 3.84375-20.871094.984374-42.421875-8.167969-61.570313-4.214844-8.203125-2.75-18.179687 3.640625-24.828125l130.425781-130.417969c4.335937-4.304687 11.332031-4.304687 15.667969 0l31.222656 31.222657c4.128906 4.128906 9.722656 6.453125 15.558594 6.453125 5.839844 0 11.433594-2.324219 15.558594-6.453125l15.667968-15.554688c4.148438-4.140625 6.46875-9.757812 6.46875-15.617187 0-5.851563-2.320312-11.472656-6.46875-15.613282l-31.226562-31.222656c-4.304688-4.335937-4.304688-11.335937 0-15.671875l15.558594-15.554687c4.335937-4.304688 11.332031-4.304688 15.667968 0l31.226563 31.226562c4.140625 4.144532 9.753906 6.472656 15.613281 6.472656s11.472656-2.328124 15.613281-6.472656l15.558594-15.671875c4.128906-4.117187 6.453125-9.71875 6.453125-15.554687 0-5.839844-2.324219-11.433594-6.453125-15.558594l-54.617187-54.617188c-4.121094-4.1875-9.746094-6.539062-15.617188-6.539062-5.867188 0-11.492188 2.351562-15.613281 6.539062l-31.222657 31.117188-31.226562 31.222656-46.785156 46.890625-140.574219 140.578125c-6.207031 5.941406-15.332031 7.675782-23.28125 4.414063-42.902344-16.753907-91.6875-1.777344-117.804687 36.15625-26.125 37.925781-22.707032 88.847656 8.25 122.945312 30.957031 34.105469 81.304687 42.421875 121.582031 20.089844l27.695312 41.488281c-14.023437 13.1875-21.621093 31.816406-20.820312 51.054688.804687 19.234375 9.9375 37.167968 25.011719 49.132812l52.742187 41.820313c8.261719 10.46875 20.871094 16.566406 34.207031 16.554687h340.621094c8.753906-.015625 17.144531-3.515625 23.308594-9.726562 6.171875-6.210938 9.617187-14.625 9.570312-23.378906v-154.476563c.046875-8.753906-3.398437-17.167969-9.570312-23.378906-6.164063-6.210938-14.554688-9.710938-23.308594-9.726563zm-507.785156 0c-31.527344.039063-58.71875-22.136718-65.023438-53.023437-6.300781-30.886719 10.019532-61.945313 39.042969-74.265625 29.015625-12.316406 62.699219-2.5 80.542969 23.492187 17.847656 25.988281 14.917968 60.953125-7.007813 83.609375-5.09375 5.316406-11.066406 9.722656-17.652343 13.015625-9.25 4.75-19.507813 7.210938-29.902344 7.171875zm121.371094 132.414063c-12.171876-.039063-22.03125-9.898438-22.0625-22.070313-.039063-4.21875 1.152343-8.359375 3.417968-11.917968 1.222656.628906 2.597656.933593 3.972656.882812 2.167969.023438 4.292969-.628906 6.070313-1.875 2.984375-1.960938 4.835937-5.253906 4.964844-8.828125 1.199219-.21875 2.417969-.332031 3.636719-.332031 12.1875 0 22.070312 9.882812 22.070312 22.070312s-9.882812 22.070313-22.070312 22.070313zm137.378906-31.890625c11.804687 5.847656 28.132812 14.015625 28.132812 31.890625-.441406 18.09375-15.003906 32.660156-33.097656 33.097656-18.261719-.054687-33.050781-14.84375-33.105469-33.097656 0-6.09375 4.941407-11.035157 11.035157-11.035157s11.035156 4.941407 11.035156 11.035157 4.941406 11.035156 11.035156 11.035156c5.921875-.402344 10.632812-5.113281 11.03125-11.035156 0-3.863281-6.621094-7.503907-16-12.25-11.804688-5.851563-28.136719-14.015625-28.136719-31.890625.445313-18.09375 15.007813-32.660156 33.105469-33.097656 18.253906.054687 33.042969 14.84375 33.097656 33.097656 0 6.09375-4.941406 11.035156-11.035156 11.035156s-11.03125-4.941406-11.03125-11.035156-4.941406-11.035156-11.03125-11.035156c-5.925781.398437-10.640625 5.113281-11.035156 11.035156 0 3.863281 6.621094 7.503906 16 12.25zm94.335937-1.214844c6.097657 0 11.035157 4.941406 11.035157 11.035156s-4.9375 11.035156-11.035157 11.035156h-22.066406v22.070313h22.066406c6.097657 0 11.035157 4.933594 11.035157 11.027344s-4.9375 11.035156-11.035157 11.035156h-22.066406c-12.171875-.035156-22.035156-9.890625-22.066406-22.0625v-66.210937c.03125-12.171876 9.894531-22.027344 22.066406-22.0625h22.066406c6.097657 0 11.035157 4.9375 11.035157 11.027343 0 6.101563-4.9375 11.035157-11.035157 11.035157h-22.066406v22.070312zm110.339844 27.585938c0 21.328124-17.289063 38.617187-38.613281 38.617187-21.332032 0-38.621094-17.289063-38.621094-38.617187v-33.101563c0-21.328125 17.289062-38.617187 38.621094-38.617187 21.324218 0 38.613281 17.289062 38.613281 38.617187zm0 0" id="svg_1" class="selected" fill="#ebb11d" fill-opacity="1"/><path d="m524.152344 496.554688c-9.148438 0-16.554688 7.414062-16.554688 16.554687v33.101563c0 9.140624 7.40625 16.554687 16.554688 16.554687 9.140625 0 16.546875-7.414063 16.546875-16.554687v-33.101563c0-9.140625-7.40625-16.554687-16.546875-16.554687zm0 0" id="svg_2" class="selected" fill="#ebb11d" fill-opacity="1"/><path d="m143.472656 353.113281c0 24.375-19.757812 44.140625-44.132812 44.140625-24.378906 0-44.140625-19.765625-44.140625-44.140625 0-24.371093 19.761719-44.132812 44.140625-44.132812 24.375 0 44.132812 19.761719 44.132812 44.132812zm0 0" id="svg_3" class="selected" fill="#ebb11d" fill-opacity="1"/></g></svg>