<svg xmlns="http://www.w3.org/2000/svg" width="282.51851925110805" height="330.62963051920224" style=""><rect id="backgroundrect" width="100%" height="100%" x="0" y="0" fill="none" stroke="none" class="" style=""/><g class="currentLayer" style=""><title>Layer 1</title><g id="Coding" class="selected" fill-opacity="1" fill="#eeb11f"><path d="M272.96298546679066,268.66663890499586 H263.6583921002699 A22.72415003827471,26.38933060846659 0 0 0 268.3703924922,252.6666405570978 V103.33332264338225 a22.99052043080097,26.698663909859288 0 0 0 -22.962964872953425,-26.66666391316349 H213.25927679711174 V28.66666368652448 a22.99052043080097,26.698663909859288 0 0 0 -22.962964872953425,-26.66666391316349 H89.25926648316322 a22.99052043080097,26.698663909859288 0 0 0 -22.962964872953425,26.66666391316349 v47.999995043694284 H34.148150788075 a22.99052043080097,26.698663909859288 0 0 0 -22.962964872953425,26.66666391316349 V252.6666405570978 a22.72415003827471,26.38933060846659 0 0 0 4.712000391930043,15.999998347898094 H6.59259294053089 a4.592592974590685,5.333332782632698 0 0 0 -4.592592974590685,5.333332782632698 v21.33333113053079 a22.99052043080097,26.698663909859288 0 0 0 22.962964872953425,26.66666391316349 H254.5926135684279 a22.99052043080097,26.698663909859288 0 0 0 22.962964872953425,-26.66666391316349 V273.99997168762854 A4.592592974590685,5.333332782632698 0 0 0 272.96298546679066,268.66663890499586 zM75.48148755939117,28.66666368652448 a13.777778923772056,15.999998347898094 0 0 1 13.777778923772056,-15.999998347898094 H190.29631192415832 a13.777778923772056,15.999998347898094 0 0 1 13.777778923772056,15.999998347898094 V87.33332429548415 a13.777778923772056,15.999998347898094 0 0 1 -13.777778923772056,15.999998347898094 H130.5926032544794 a4.592592974590685,5.333332782632698 0 0 0 -3.485778067714331,1.8613331411388125 L107.62963838152596,131.59998639133556 V108.66665542601496 a4.592592974590685,5.333332782632698 0 0 0 -4.592592974590685,-5.333332782632698 H89.25926648316322 a13.777778923772056,15.999998347898094 0 0 1 -13.777778923772056,-15.999998347898094 zM20.370371864302946,252.6666405570978 V103.33332264338225 a13.777778923772056,15.999998347898094 0 0 1 13.777778923772056,-15.999998347898094 h32.148150822134795 a22.99052043080097,26.698663909859288 0 0 0 22.962964872953425,26.66666391316349 h9.18518594918137 v31.999996695796188 a4.592592974590685,5.333332782632698 0 0 0 8.078371042305015,3.4719996414938867 L132.70519602279109,113.99998820864764 H190.29631192415832 a22.99052043080097,26.698663909859288 0 0 0 22.962964872953425,-26.66666391316349 h32.148150822134795 a13.777778923772056,15.999998347898094 0 0 1 13.777778923772056,15.999998347898094 V252.6666405570978 a13.777778923772056,15.999998347898094 0 0 1 -13.777778923772056,15.999998347898094 H34.148150788075 A13.777778923772056,15.999998347898094 0 0 1 20.370371864302946,252.6666405570978 zm101.03704544099507,26.66666391316349 h36.74074379672548 v5.333332782632698 a4.592592974590685,5.333332782632698 0 0 1 -4.592592974590685,5.333332782632698 H126.0000102798887 a4.592592974590685,5.333332782632698 0 0 1 -4.592592974590685,-5.333332782632698 zm146.96297518690193,15.999998347898094 a13.777778923772056,15.999998347898094 0 0 1 -13.777778923772056,15.999998347898094 H24.96296483889363 a13.777778923772056,15.999998347898094 0 0 1 -13.777778923772056,-15.999998347898094 V279.3333044702613 H112.22223135611665 v5.333332782632698 a13.777778923772056,15.999998347898094 0 0 0 13.777778923772056,15.999998347898094 h27.55555784754411 a13.777778923772056,15.999998347898094 0 0 0 13.777778923772056,-15.999998347898094 V279.3333044702613 H268.3703924922 z" id="svg_1" fill="#eeb11f"/><path d="M250.00002059383718,252.6666405570978 V103.33332264338225 a4.592592974590685,5.333332782632698 0 0 0 -4.592592974590685,-5.333332782632698 H222.44446274629308 a4.592592974590685,5.333332782632698 0 0 0 0,10.666665565265395 h18.37037189836274 V247.3333077744651 H38.74074376266569 V108.66665542601496 h18.37037189836274 a4.592592974590685,5.333332782632698 0 0 0 0,-10.666665565265395 H34.148150788075 a4.592592974590685,5.333332782632698 0 0 0 -4.592592974590685,5.333332782632698 V252.6666405570978 a4.592592974590685,5.333332782632698 0 0 0 4.592592974590685,5.333332782632698 H245.4074276192465 A4.592592974590685,5.333332782632698 0 0 0 250.00002059383718,252.6666405570978 z" id="svg_2" fill="#eeb11f"/><path d="M57.11111566102843,145.99998490444383 a4.592592974590685,5.333332782632698 0 0 0 4.592592974590685,5.333332782632698 h9.18518594918137 a4.592592974590685,5.333332782632698 0 0 0 0,-10.666665565265395 H61.70370863561911 A4.592592974590685,5.333332782632698 0 0 0 57.11111566102843,145.99998490444383 z" id="svg_3" fill="#eeb11f"/><path d="M70.88889458480048,161.99998325234193 H61.70370863561911 a4.592592974590685,5.333332782632698 0 0 0 0,10.666665565265395 h9.18518594918137 a4.592592974590685,5.333332782632698 0 0 0 0,-10.666665565265395 z" id="svg_4" fill="#eeb11f"/><path d="M70.88889458480048,183.33331438287271 H61.70370863561911 a4.592592974590685,5.333332782632698 0 0 0 0,10.666665565265395 h9.18518594918137 a4.592592974590685,5.333332782632698 0 0 0 0,-10.666665565265395 z" id="svg_5" fill="#eeb11f"/><path d="M70.88889458480048,204.66664551340352 H61.70370863561911 a4.592592974590685,5.333332782632698 0 0 0 0,10.666665565265395 h9.18518594918137 a4.592592974590685,5.333332782632698 0 0 0 0,-10.666665565265395 z" id="svg_6" fill="#eeb11f"/><path d="M70.88889458480048,225.9999766439343 H61.70370863561911 a4.592592974590685,5.333332782632698 0 0 0 0,10.666665565265395 h9.18518594918137 a4.592592974590685,5.333332782632698 0 0 0 0,-10.666665565265395 z" id="svg_7" fill="#eeb11f"/><path d="M130.5926032544794,151.33331768707654 H217.8518697717024 a4.592592974590685,5.333332782632698 0 0 0 0,-10.666665565265395 H130.5926032544794 a4.592592974590685,5.333332782632698 0 0 0 0,10.666665565265395 z" id="svg_8" fill="#eeb11f"/><path d="M126.0000102798887,172.66664881760732 H199.48149787333966 a4.592592974590685,5.333332782632698 0 0 0 0,-10.666665565265395 H126.0000102798887 a4.592592974590685,5.333332782632698 0 0 0 0,10.666665565265395 z" id="svg_9" fill="#eeb11f"/><path d="M89.25926648316322,193.99997994813813 H144.37038217825142 a4.592592974590685,5.333332782632698 0 0 0 0,-10.666665565265395 H89.25926648316322 a4.592592974590685,5.333332782632698 0 0 0 0,10.666665565265395 z" id="svg_10" fill="#eeb11f"/><path d="M89.25926648316322,215.3333110786689 H144.37038217825142 a4.592592974590685,5.333332782632698 0 0 0 0,-10.666665565265395 H89.25926648316322 a4.592592974590685,5.333332782632698 0 0 0 0,10.666665565265395 z" id="svg_11" fill="#eeb11f"/><path d="M89.25926648316322,236.6666422091997 H144.37038217825142 a4.592592974590685,5.333332782632698 0 0 0 0,-10.666665565265395 H89.25926648316322 a4.592592974590685,5.333332782632698 0 0 0 0,10.666665565265395 z" id="svg_12" fill="#eeb11f"/><path d="M86.71037738226539,59.770660474838365 l27.55555784754411,21.33333113053079 a4.592592974590685,5.333332782632698 0 1 0 5.09777820179566,-8.87466575030081 l-20.97437211495566,-16.234664990333936 L118.86771339034937,44.1333287561593 a4.592592974590685,5.333332782632698 0 1 0 -4.105778119284073,-9.54666568091253 l-27.55555784754411,15.999998347898094 a4.592592974590685,5.333332782632698 0 0 0 -0.49600004125579406,9.21066571560667 z" id="svg_13" fill="#eeb11f"/><path d="M160.68786501697213,44.1333287561593 l20.478372073699862,11.887998772488286 l-20.97437211495566,16.234664990333936 a4.592592974590685,5.333332782632698 0 0 0 5.09777820179566,8.87466575030081 l27.55555784754411,-21.33333113053079 a4.592592974590685,5.333332782632698 0 0 0 -0.49600004125579406,-9.21066571560667 l-27.55555784754411,-15.999998347898094 a4.592592974590685,5.333332782632698 0 0 0 -4.105778119284073,9.54666568091253 z" id="svg_14" fill="#eeb11f"/><path d="M129.02193645716937,92.34665711115889 a4.592592974590685,5.333332782632698 0 0 0 5.883111600450668,-3.1999996695796193 l18.37037189836274,-58.666660608959674 a4.592592974590685,5.333332782632698 0 1 0 -8.624889606281307,-3.647999623320766 l-18.37037189836274,58.666660608959674 A4.592592974590685,5.333332782632698 0 0 0 129.02193645716937,92.34665711115889 z" id="svg_15" fill="#eeb11f"/><path d="M89.25926648316322,172.66664881760732 h18.37037189836274 a4.592592974590685,5.333332782632698 0 0 0 0,-10.666665565265395 H89.25926648316322 a4.592592974590685,5.333332782632698 0 0 0 0,10.666665565265395 z" id="svg_16" fill="#eeb11f"/><path d="M204.07409084793034,188.66664716550542 a4.592592974590685,5.333332782632698 0 0 0 -4.592592974590685,-5.333332782632698 H162.74075407661417 a4.592592974590685,5.333332782632698 0 0 0 0,10.666665565265395 h36.74074379672548 A4.592592974590685,5.333332782632698 0 0 0 204.07409084793034,188.66664716550542 z" id="svg_17" fill="#eeb11f"/><path d="M171.92594002579557,204.66664551340352 H162.74075407661417 a4.592592974590685,5.333332782632698 0 0 0 0,10.666665565265395 h9.18518594918137 a4.592592974590685,5.333332782632698 0 0 0 0,-10.666665565265395 z" id="svg_18" fill="#eeb11f"/><path d="M171.92594002579557,225.9999766439343 H162.74075407661417 a4.592592974590685,5.333332782632698 0 0 0 0,10.666665565265395 h9.18518594918137 a4.592592974590685,5.333332782632698 0 0 0 0,-10.666665565265395 z" id="svg_19" fill="#eeb11f"/></g></g></svg>